<?xml version="1.0" encoding="UTF-8"?>
<svg width="88px" height="93px" viewBox="0 0 88 93" version="1.1" xmlns="http://www.w3.org/2000/svg" xmlns:xlink="http://www.w3.org/1999/xlink">
    <title>脑图-灰色</title>
    <defs>
        <path d="M13.0773714,30 L13.0773714,21.966 C13.0773714,20.146 12.7653714,17.468 12.5833714,15.648 L12.6873714,15.648 L14.2213714,20.172 L17.2113714,28.258 L19.4213714,28.258 L22.3853714,20.172 L23.9453714,15.648 L24.0493714,15.648 C23.8673714,17.468 23.5813714,20.146 23.5813714,21.966 L23.5813714,30 L27.0913714,30 L27.0913714,10.76 L22.8273714,10.76 L19.6293714,19.756 C19.2133714,20.952 18.8753714,22.226 18.4593714,23.474 L18.3293714,23.474 C17.9393714,22.226 17.5753714,20.952 17.1593714,19.756 L13.8833714,10.76 L9.61937144,10.76 L9.61937144,30 L13.0773714,30 Z" id="path-1"></path>
    </defs>
    <g id="小溪知识库-20230804✅" stroke="none" stroke-width="1" fill="none" fill-rule="evenodd">
        <g id="画板" transform="translate(-374.000000, -3623.000000)" fill-rule="nonzero">
            <g id="脑图-灰色" transform="translate(375.000000, 3624.000000)">
                <path d="M6.21428571,0 L46.4190901,0 L69.5714286,22.7905832 L69.5714286,84.875 C69.5714286,88.2466703 66.7743952,91 63.3571429,91 L6.21428571,91 C2.79703338,91 0,88.2466703 0,84.875 L0,6.125 C0,2.75332974 2.79703338,0 6.21428571,0 Z" id="路径" stroke="#BCC6CF" fill="#FFFFFF"></path>
                <path d="M23.9862287,62 C23.7206225,62 23.5018173,61.7871944 23.4946514,61.5186948 C23.4743413,60.7583413 23.2649424,60.1734287 22.8890084,59.8271789 C22.6126568,59.5726071 22.2508129,59.4567161 21.813478,59.4822764 C18.9170411,59.7138994 17.076141,59.3920248 16.0195658,58.4696844 C15.4186846,57.945148 15.0865572,57.2282815 15.0324379,56.3389786 C15.032123,56.3335579 15.0318475,56.3281373 15.03169,56.3227167 C15.0070502,55.444731 15.2939507,54.986707 15.5034274,54.6522928 C15.6351679,54.4419961 15.7231784,54.3014949 15.7399066,54.077468 C15.7353801,53.7126237 15.665082,53.5657531 14.9590703,53.2758855 C14.9484822,53.2715331 14.938091,53.2668247 14.9278572,53.2617602 C14.3423655,52.9721323 14.0214581,52.4999026 14.0474369,51.9661908 C14.0596387,51.7158923 14.1503257,51.4776211 14.3048559,51.2690245 C14.0452325,51.1145959 13.8637784,50.9287513 13.7564439,50.708997 C13.6578453,50.5070489 13.5779823,50.180505 13.7575066,49.7713852 C13.7953322,49.6851696 13.8568529,49.6116545 13.9348265,49.5594267 C14.2728563,49.3329867 14.62246,48.9730486 14.4293924,48.1794195 C12.9293165,47.5971941 12.1621735,46.9538038 12.0219327,46.1646444 C11.912313,45.5477207 12.2139737,44.9307969 12.9185696,44.3310869 C14.6405998,42.861225 15.7258962,41.3371154 16.145953,39.7992949 C15.6828739,38.4152512 15.8075689,36.7629885 16.5020887,35.1255232 C18.9380466,29.0497397 23.0347458,25.5732844 28.3497393,25.0711353 C28.3538328,25.0707396 28.3578869,25.0704231 28.3619411,25.0701461 C32.7412141,24.7665116 36.4664022,25.4495905 39.4340749,27.10031 C42.4158062,28.7588249 44.7020266,31.4293401 46.2292891,35.0376835 C46.2333826,35.0473378 46.2371612,35.0571107 46.2406249,35.0670024 C47.0735381,37.4441275 47.2221256,39.9329418 46.6821718,42.4643346 C46.2033492,44.7091888 45.1721758,46.9411442 43.7001634,48.9189628 C43.6985891,48.9210994 43.6969752,48.9231964 43.6953615,48.9252934 C41.6938691,51.525971 41.1447877,54.3729943 42.0167843,57.6290948 C42.0874367,57.8928462 41.9319618,58.1641946 41.6695835,58.2352154 C41.4070868,58.3061586 41.1372687,58.1499491 41.0666176,57.886198 C40.1228658,54.3620758 40.7445288,51.1447491 42.9146028,48.3233263 C45.9042078,44.304703 46.7796855,39.5994188 45.317693,35.410358 C42.4006316,28.5330383 36.8775541,25.4728559 28.4357613,26.0565119 C22.216165,26.6469267 19.008783,31.5173976 17.4129002,35.499946 C17.4116407,35.5031113 17.4103418,35.5062766 17.4090035,35.5094024 C16.5696361,37.4852838 16.8683459,38.9232158 17.1211584,39.6045061 C17.1557959,39.6978833 17.1615821,39.7996091 17.1377293,39.8963101 C16.6961017,41.6874128 15.4906814,43.4333311 13.5549975,45.0855705 C13.2673494,45.3304091 12.936442,45.685756 12.990642,45.990738 C13.0256337,46.1876217 13.2914761,46.7129867 15.0004812,47.3382584 C15.1410384,47.3896951 15.2506974,47.5025787 15.2984812,47.6450979 C15.7536097,49.0027873 15.2279469,49.8107381 14.6381265,50.2689631 C14.6386382,50.2703875 14.6391892,50.2717724 14.639819,50.273078 C14.6500922,50.2940484 14.7593575,50.4830584 15.4280982,50.6494362 C15.6373004,50.7014665 15.7884849,50.884383 15.8010804,51.1006164 C15.8136759,51.3169275 15.6847695,51.516263 15.4830063,51.5925075 C15.1789054,51.7073696 15.0365361,51.8872791 15.0303587,52.0146035 C15.0246514,52.1314836 15.1433241,52.2627259 15.3485509,52.3673405 C16.0432273,52.6540407 16.7168099,53.0271134 16.7241296,54.0881339 C16.7242083,54.0990939 16.7239328,54.1100538 16.723303,54.1210138 C16.6944516,54.6074453 16.5041424,54.9113176 16.3361909,55.1793818 C16.1562334,55.466715 16.0006801,55.7150346 16.0151649,56.2866153 C16.0544077,56.9056734 16.2669556,57.3755291 16.664815,57.722846 C17.4977281,58.4499239 19.1580809,58.7028738 21.7403684,58.4958199 C21.7435172,58.4955825 21.7466268,58.4953451 21.7497756,58.4951473 C22.4553566,58.4522174 23.079224,58.6606941 23.5538347,59.0978654 C24.1310219,59.6295626 24.4507101,60.4574146 24.4783389,61.4920845 C24.4856207,61.7651342 24.2713407,61.9924434 23.9997126,62 C23.9951466,62 23.9906595,62 23.9862117,62 L23.9862287,62 Z M36.6351914,57.0192308 C36.6314229,57.0192308 36.6277337,57.0192308 36.6239651,57.0192308 C36.3502097,57.0131162 36.1331402,56.7889527 36.1392108,56.5184203 C36.2190247,52.9623348 35.708643,49.867118 34.6221132,47.316674 C33.8751881,47.1508345 33.2073601,46.5062506 32.6322398,45.3947994 C31.9830967,45.5367682 31.3374852,45.6215107 30.6962387,45.6489483 C31.109273,46.4535687 31.8378697,47.135587 32.8675577,47.6799843 C32.9342413,47.7152217 32.9918405,47.7650795 33.0360316,47.825716 C34.1126064,49.3031043 34.7335437,52.1231864 34.9344263,56.4470863 C34.9469617,56.717384 34.7353676,56.946565 34.4618095,56.9589907 C34.188094,56.972435 33.9562692,56.7623428 33.9436937,56.4920471 C33.7587968,52.5117686 33.2039093,49.819946 32.2937816,48.4870963 C30.9563037,47.7560456 30.0535997,46.7987165 29.609743,45.6401519 C29.2769206,45.620397 28.9457644,45.5849242 28.6159557,45.5336162 C27.378008,45.7575838 26.2398271,45.6717439 25.3193879,45.284132 C24.453891,44.9196063 23.7854311,44.2865879 23.4371351,43.5016403 C23.0801941,42.6972153 23.0814636,41.827881 23.3956019,41.0414855 C22.4535431,40.7533537 21.6754779,40.2756283 21.0699304,39.6143859 C20.9715119,39.6269287 20.8682935,39.6105055 20.7740004,39.5609221 C19.4401741,38.8598172 18.6920551,38.0618999 18.4867688,37.1216581 C18.2644245,36.1030624 18.6756721,34.963707 19.780969,33.5382928 C20.7676545,31.7033176 22.1052526,30.5699184 24.1042476,29.8772402 C25.3579456,28.7763723 26.9938129,28.1461367 28.5109494,28.1827434 C31.1783266,27.6323899 33.173697,27.7467644 35.840644,28.6010453 C38.0956653,29.0744585 39.5740441,29.9942002 40.7629651,31.6664695 C42.3714213,32.8099426 43.4748529,34.1820496 44.135141,35.8588349 C44.7761511,37.486695 44.9873103,39.3816805 44.780675,41.6514091 C44.7460837,42.248447 44.5039048,42.7467499 44.0800436,43.09293 C43.9608387,43.1902543 43.8285427,43.2748793 43.6841863,43.3464514 C43.0857408,44.5295916 42.4033951,45.3990446 41.6126341,45.9822052 C41.6022805,46.0485646 41.5778841,46.1139048 41.5384928,46.1739142 C40.6497909,47.5271645 39.7645391,48.3969316 38.8321601,48.8327957 C38.0266838,49.2093153 37.1662225,49.2665799 36.2661352,49.0049067 C36.9029392,51.2269052 37.1931994,53.7512569 37.1306397,56.540064 C37.1246894,56.8069125 36.9038525,57.0192308 36.6351746,57.0192308 L36.6351914,57.0192308 Z M35.7926576,47.4641567 C35.8245499,47.4704664 35.8561183,47.4794297 35.8870395,47.4910786 C37.3564366,48.045339 38.5893913,47.7826245 39.8571428,46.6007145 C38.9644826,46.7478142 37.9822518,46.6796682 36.9230078,46.3959529 C36.8773952,46.3837539 36.8354256,46.366863 36.7976241,46.3461538 C36.3821317,46.6668232 35.974332,46.8825863 35.5714286,46.995385 C35.6480834,47.1496035 35.7217838,47.3056984 35.7926513,47.4641548 L35.7926576,47.4641567 Z M34.1428571,45.1821705 C34.4663001,45.7511326 34.9224118,46.3279854 35.4483743,46.3457501 C35.4562318,46.346007 35.4643916,46.3461538 35.4726646,46.3461538 C35.8452923,46.3461538 36.5944018,46.0627739 37.7142857,44.3495767 C37.3169906,44.3269679 36.9195073,44.2809797 36.5217951,44.2115385 C35.7261456,44.6209912 34.9320833,44.9448161 34.1428571,45.1821739 L34.1428571,45.1821705 Z M37.7142857,45.4407368 C39.8358421,45.9897637 41.445639,45.3786756 42.7142857,43.5316923 C42.4727912,43.5381632 42.2168918,43.5277216 41.9483175,43.5 C40.8801534,43.8508588 39.7966384,44.0529252 38.7066203,44.1055751 C38.3697299,44.6193812 38.0394255,45.0641034 37.7142857,45.4407372 L37.7142857,45.4407368 Z M35.3695717,33.1041893 C35.4501756,33.1041893 35.5318835,33.1236621 35.607442,33.1646595 C35.8455884,33.2939235 35.9319468,33.5883404 35.800379,33.8222462 C34.8628913,35.4886643 33.3588852,36.7291201 31.3301213,37.5091945 C31.3020971,37.5199569 31.273127,37.5282028 31.2435656,37.5337775 C29.0061258,37.956297 27.1349098,38.7148073 25.6818776,39.7882514 C25.6804981,39.789258 25.6791186,39.7903032 25.6777391,39.7913098 C24.6786851,40.5133163 24.3055782,41.6663545 24.7493146,42.660439 C25.1908439,43.6495676 26.5109754,44.5446579 28.8919814,44.0896977 C28.9496459,44.0787031 29.0088079,44.0778902 29.0667874,44.0873362 C31.3414736,44.4584818 33.7171911,43.9943077 36.1279596,42.7076673 C36.2288621,42.6538555 36.3457676,42.6363186 36.4583371,42.6580752 C38.2210611,42.998792 39.9879641,42.8457579 41.7099983,42.2032323 C41.7870154,42.174507 41.8700236,42.165177 41.9517314,42.1761329 C42.7469703,42.2829046 43.3784793,42.1846498 43.7299047,41.8993707 C43.9412095,41.7277929 44.0526358,41.4861842 44.0703728,41.1606008 C44.0707275,41.1547164 44.0711611,41.148832 44.0716734,41.1429476 C44.4553011,36.9739705 43.2953543,34.1003885 40.4212018,32.0996215 C40.3740615,32.0667925 40.3331482,32.0261047 40.3003548,31.979339 C39.2486783,30.4798911 37.9860573,29.6960222 35.9421829,29.2737373 C35.9249191,29.2701757 35.9078918,29.2656849 35.8911404,29.2603424 C33.3923404,28.4616056 31.5338929,28.3578939 29.0341877,28.8776975 C28.9948121,28.8858661 28.9546084,28.889389 28.914405,28.8878792 C27.6099616,28.8417715 26.1837646,29.3975402 25.0980349,30.3745512 C25.0477019,30.419846 24.9883426,30.4543784 24.9237411,30.4759417 C23.1031178,31.0836663 21.9494356,32.0467364 21.0661034,33.6961226 C21.0528994,33.7208217 21.0375275,33.7443209 21.0201849,33.7663874 C20.1058731,34.9307335 19.7366295,35.8391821 19.8913349,36.5435705 C19.9910156,36.9974071 20.317176,37.4215912 20.8819149,37.828157 C20.9223548,37.7709385 20.9760778,37.7215015 21.0417038,37.6846077 C21.2778793,37.5518207 21.5788527,37.6322285 21.7140489,37.8641993 C22.2754407,38.8275456 23.126214,39.4475011 24.3109952,39.7550387 C24.470942,39.553574 24.6558384,39.3638779 24.8645795,39.1896668 C24.0221221,38.795835 23.3908096,38.2603122 22.9829021,37.5921175 C22.8429783,37.3628953 22.9186947,37.0656933 23.1520719,36.9282583 C23.3854095,36.790787 23.6880769,36.865194 23.8279645,37.0944163 C24.2089117,37.7183971 24.8749881,38.200108 25.8081811,38.5265426 C26.0136916,38.3982077 26.2253519,38.2750216 26.4432374,38.1569069 C26.1200726,37.5003681 25.642479,36.8516453 25.0197598,36.2241802 C24.8298183,36.0328199 24.8338387,35.7264437 25.0286676,35.5398805 C25.2235362,35.3533593 25.5354686,35.3572695 25.7253711,35.5486298 C26.418092,36.2466321 26.9542972,36.976186 27.3237334,37.7223102 C27.8000671,37.5088059 28.3013061,37.3168642 28.8266726,37.1467578 C28.8495728,37.0436251 28.8738526,36.9406862 28.8995118,36.837825 C28.1188556,36.9756833 27.4961364,36.8652727 27.1057274,36.5103095 C26.8996648,36.3229753 26.583712,35.8953856 26.7824839,35.1366785 C27.1179069,33.8697064 27.640826,32.949178 28.3441506,32.383303 C28.1879486,31.7984211 28.3333509,31.0160239 29.6562821,30.3333131 C29.7113451,30.0003004 29.8578119,29.7256302 30.0936708,29.514098 C30.4887289,29.1597543 31.088665,29.0232507 31.9273015,29.0968447 C32.1983198,29.1206147 32.3984315,29.3556827 32.374231,29.6218768 C32.3500695,29.888109 32.1103861,30.0850842 31.839682,30.0608492 C31.3143965,30.014819 30.9301773,30.0744376 30.7581314,30.2287879 C30.7232884,30.2600296 30.6173012,30.3551098 30.6167886,30.6470854 C30.6164733,30.8353874 30.5049285,31.0064233 30.3309106,31.0854753 C29.6491479,31.3951826 29.3972824,31.6625373 29.3158911,31.8615244 C29.415493,31.8300504 29.5175785,31.8034929 29.6220286,31.7818524 C29.8881594,31.7266469 30.149679,31.893889 30.2058451,32.155398 C30.2620514,32.4169069 30.0917384,32.6736165 29.8255286,32.7288205 C28.8377448,32.9335759 28.1544453,33.8004449 27.7365272,35.3790632 C27.6994769,35.5205995 27.6757489,35.7096758 27.775154,35.8000731 C27.9400276,35.9499714 28.4569976,35.9966213 29.2187724,35.7641859 C29.9584384,33.6244554 31.2996544,31.5497729 33.2207351,29.578439 C33.4088242,29.3853365 33.7207146,29.3786392 33.9173577,29.5634569 C34.1139211,29.748236 34.1207398,30.0545766 33.9326113,30.2476393 C31.8835757,32.3503589 30.5354998,34.5626089 29.9177839,36.8336833 C30.2731509,36.7441005 30.6380178,36.6634604 31.0123034,36.591918 C32.8002909,35.8956181 34.1208961,34.8064549 34.9380014,33.3541227 C35.0277498,33.1943912 35.1960128,33.1041891 35.3695201,33.1041891 L35.3695717,33.1041893 Z M28.1055265,44.2115385 C27.6412211,44.2115385 27.1718259,44.1699517 26.6979319,44.0866658 C26.4273236,44.0390912 26.2460807,43.7788178 26.2931529,43.5052751 C26.3402238,43.2317307 26.5977416,43.0483886 26.8683884,43.0961648 C28.0883751,43.3105927 29.2754937,43.2092904 30.4079851,42.795234 C30.3789786,42.7732362 30.3503699,42.7505145 30.3220399,42.7269887 C30.1098028,42.5507251 30.0791251,42.2339507 30.2534824,42.0194431 C30.4278798,41.8049346 30.7413433,41.773929 30.9535372,41.950152 C31.4504268,42.3627599 32.0326303,42.3176391 32.3509833,42.0598192 C32.6438741,41.822549 32.6882792,41.4581186 32.4759223,41.0337249 C32.3519383,40.7859585 32.4501786,40.483581 32.6952821,40.3582672 C32.9403456,40.2329965 33.2396015,40.3322077 33.3635886,40.5799741 C33.3748889,40.6026153 33.3857912,40.6251762 33.3962558,40.6478574 C34.0776117,40.5241152 34.5379354,40.1240953 34.8414506,39.3943888 C34.9479671,39.1384588 35.2393861,39.0182554 35.4927263,39.125791 C35.6551073,39.1948003 35.7622607,39.3407416 35.7902326,39.504056 C36.6745942,39.4044427 37.3578981,38.9951726 37.870271,38.2613632 C38.0285933,38.0345088 38.3389119,37.9803791 38.5634046,38.140476 C38.648435,38.2011208 38.7089148,38.2838031 38.7426963,38.375494 C38.9646024,38.1534251 39.0411971,37.9519885 39.0301756,37.8166611 C39.0165676,37.650009 38.8737629,37.5609725 38.7898866,37.5227275 C38.4957228,37.3886899 37.9562171,37.4157145 37.3235626,37.8933514 C37.1035663,38.0595209 36.7918568,38.0139168 36.6274466,37.7914459 C36.4630761,37.569015 36.5081974,37.2540075 36.7282733,37.0878813 C37.2949546,36.6600724 37.9059628,36.4399724 38.4618228,36.4468105 C38.492023,36.4043028 38.5293059,36.3658574 38.5735119,36.3334036 C39.6990783,35.5058142 39.5862351,34.7257966 39.4034408,34.2111244 C39.3106121,33.9498058 39.4449811,33.6619435 39.7035331,33.5681634 C39.9620456,33.4743413 40.2469,33.6101886 40.3396483,33.8714668 C40.6199653,34.6607708 40.6840664,35.7824176 39.5485521,36.8268059 C39.8220253,37.0582044 39.9924827,37.3781994 40.0215285,37.7341848 C40.0263828,37.7940651 40.0278551,37.8632756 40.0225631,37.9400466 C40.1420906,37.9588673 40.2564456,37.9869779 40.3647527,38.023654 C40.6757876,37.5219702 40.8032318,37.0452965 40.7537762,36.5716017 C40.7249288,36.2955237 40.923041,36.0480793 41.1961942,36.0189624 C41.4690308,35.9899672 41.714213,36.190038 41.7429827,36.4661576 C41.8169913,37.1752752 41.6289061,37.8907042 41.183701,38.595436 C41.4101433,38.8888867 41.5334908,39.2605147 41.5219518,39.6775477 C41.5178933,39.823891 41.4964866,39.971602 41.4581296,40.1176651 C42.2851539,40.2988753 42.9232987,40.7612707 43.3579206,41.4953983 C43.4989744,41.7336338 43.4222203,42.0423275 43.1864675,42.1848898 C42.9507146,42.3273724 42.6452898,42.2498776 42.5042756,42.0116021 C42.1754151,41.4561096 41.6873571,41.1448823 41.0120903,41.0600704 C40.9885748,41.0570944 40.9656163,41.0525098 40.9433738,41.0464776 C40.488381,41.5414058 39.7734844,41.8948996 38.8272089,41.903345 C38.6772423,41.9051949 38.5418386,41.8385985 38.449686,41.7330735 C38.0291904,42.1997298 37.570177,42.4969233 37.0776656,42.6201818 C36.7731166,42.6963495 36.4597362,42.7063228 36.1394273,42.6503432 C36.0972506,42.7380127 36.0295288,42.8142608 35.9395645,42.8663797 C34.5898631,43.6484447 33.417944,43.7412619 32.4536461,43.1431815 C32.2231055,43.2305291 31.9774036,43.2721518 31.7288421,43.267889 C31.6875803,43.3142976 31.6370079,43.3536681 31.5782389,43.3828644 C30.4673549,43.9344151 29.3039512,44.2115385 28.1055292,44.2115385 L28.1055265,44.2115385 Z M33.4285714,42.003878 C33.9055452,42.1522262 34.4642998,42.074781 35.1184182,41.7700046 C35.0891971,41.7523872 35.0599364,41.734218 35.0305972,41.7156155 C34.8007379,41.5693952 34.7330953,41.2648538 34.8795956,41.035398 C35.0261352,40.8058995 35.3312591,40.7384647 35.5611581,40.8846849 C36.0663672,41.205975 36.5074459,41.3138862 36.9101059,41.2144487 C37.4115217,41.0905754 37.8932381,40.6295668 38.341857,39.8441962 C38.476866,39.6078397 38.7782395,39.5253892 39.0151655,39.6602191 C39.2519746,39.7949701 39.3345043,40.0958445 39.1994949,40.3322022 C39.1727616,40.3789845 39.1458703,40.4248607 39.1187028,40.4699487 C40.0445773,40.3759107 40.5559065,39.7998992 40.5710679,39.259475 C40.5829143,38.8379574 40.3024318,38.5776012 39.8016083,38.5451641 C39.7563551,38.5422476 39.7129581,38.5333404 39.6721275,38.5192308 C39.5179666,38.7073463 39.3075753,38.9010977 39.0223541,39.0908674 C38.7961673,39.2413046 38.4907698,39.1808853 38.3391747,38.9561164 C37.5960903,39.7330523 36.6198308,40.1261151 35.428718,40.1261151 C35.4281652,40.1261151 35.4276518,40.1261151 35.427099,40.1261151 C34.9997616,40.7068565 34.4188534,41.0680329 33.691683,41.2036897 C33.6744268,41.4924648 33.5856185,41.7654742 33.4285714,42.0038809 L33.4285714,42.003878 Z M25.584145,42.7884615 C25.4746541,42.7884615 25.3644032,42.7534312 25.2722004,42.6813085 C25.0563404,42.5124994 25.0212038,42.20434 25.1936439,41.9930679 C25.3085371,41.8523089 25.4277126,41.7225192 25.5510498,41.6037767 C25.2804042,41.4744178 25.0724294,41.2928767 24.9290822,41.0602101 C24.7864159,40.8286021 24.8625313,40.5276155 25.0991212,40.387953 C25.3356309,40.2483302 25.6431326,40.3227643 25.7858384,40.5544114 C25.9110966,40.7577344 26.2652996,40.8283685 26.5403479,40.8518349 C26.5818069,40.8553607 26.6216254,40.8637443 26.6593231,40.8763589 C27.118738,40.6936426 27.6176863,40.6212846 28.1541774,40.660304 C28.4937349,40.1678614 29.0850874,39.7277984 30.1082824,39.7982365 C30.8059653,38.8575842 31.6740106,38.3047338 32.6929624,38.1528893 C34.3567751,37.6416455 34.5619898,36.7693142 34.5709923,36.1557804 C34.5749941,35.8853098 34.8033801,35.6678437 35.0783877,35.6731728 C35.3545958,35.6770512 35.5753376,35.8994135 35.5714797,36.1698458 C35.5570094,37.1517105 35.0906713,38.4571295 32.9508817,39.1000077 C32.9256701,39.1075687 32.8999381,39.1131708 32.8738462,39.1167751 C32.0361363,39.2322263 31.3478587,39.7126027 30.7695894,40.5853245 C30.6615391,40.7484137 30.4652081,40.8334256 30.2691159,40.8020847 C29.3618149,40.6567814 29.0472685,41.0429773 28.8744306,41.3957186 C28.7786663,41.591128 28.5631261,41.7017999 28.3444665,41.6674821 C27.3871826,41.5178301 26.6121029,41.8241859 25.9752863,42.6044132 C25.8764806,42.7254275 25.7309731,42.7884615 25.5841446,42.7884615 L25.584145,42.7884615 Z M42.6292193,39.9423077 C42.5309467,39.9423077 42.4315383,39.9191904 42.3418742,39.8706337 C42.0855095,39.7318673 42.0065509,39.4379323 42.1655607,39.2141453 C42.2924979,39.0354425 42.6352913,38.4085537 41.7159721,37.8450585 C41.5184222,37.7239909 41.4353563,37.5041311 41.5115619,37.304219 C41.8646257,36.3786284 41.3006411,35.3519522 40.8611043,35.1477717 C40.5948206,35.0240721 40.4938391,34.7353254 40.6355892,34.5028795 C40.7772953,34.2704323 41.108074,34.1822825 41.3743564,34.3059821 C41.8518244,34.5277872 42.2785596,35.0248761 42.5159591,35.6355911 C42.726312,36.1768481 42.7708818,36.7478205 42.6484018,37.2759941 C43.6110708,38.0341348 43.5866887,39.0230479 43.0938826,39.7166882 C42.9905414,39.8622443 42.8119558,39.9423077 42.6292206,39.9423077 L42.6292193,39.9423077 Z M21.7630161,37.8076923 C21.7503538,37.8076923 21.7376915,37.8071702 21.7248764,37.8060859 C21.4624001,37.7841985 21.2664403,37.5424332 21.2872263,37.2660501 C21.3489361,36.4452116 21.6193076,35.9049363 22.0907502,35.660279 C22.1153121,35.6475482 22.1402553,35.6357009 22.1655418,35.6247371 C22.2498304,34.584747 22.7761551,33.8792908 23.6653797,33.6062785 C24.101047,32.3939999 25.0349706,31.6558913 26.4454889,31.4105942 C26.7054479,31.3655744 26.9506478,31.5505528 26.9935541,31.8240864 C27.0364611,32.0976584 26.8606378,32.3560102 26.6008676,32.4011897 C25.4594269,32.5997021 24.7689084,33.1792544 24.4897679,34.1729032 C24.4387372,34.3545886 24.2949129,34.4905312 24.1179069,34.5244265 C23.5102305,34.640811 23.2057979,34.9639817 23.1272681,35.5913665 C23.5021427,35.6908437 23.9268636,35.9039746 24.4065069,36.2320439 C24.6273349,36.3830871 24.6900745,36.6939692 24.5466317,36.9264957 C24.4031886,37.1589438 24.1078746,37.2250475 23.8871227,37.0740448 C22.940881,36.4268605 22.5954876,36.5176239 22.5121908,36.5609158 C22.3696634,36.6348911 22.2696231,36.9207925 22.2377005,37.3453264 C22.2180205,37.6081357 22.0092446,37.8076923 21.7630143,37.8076923 L21.7630161,37.8076923 Z M36.9047748,34.9615384 C36.7100261,34.9615384 36.5094598,34.9326315 36.3043531,34.874397 C36.0441246,34.8005236 35.8906762,34.5519465 35.9537646,34.3066185 C36.1983556,33.3554022 35.9295448,32.6110473 35.2689277,32.4102654 C34.4116196,32.1497201 33.1083337,32.8397416 32.2766493,34.6631004 C32.1657416,34.9062478 31.8631376,35.0200023 31.6007636,34.9172603 C31.3384307,34.8144797 31.2156401,34.5340505 31.3265479,34.2909405 C32.4508507,31.8261214 34.3249751,31.1173276 35.5904081,31.5019908 C36.4700376,31.7693424 37.2047994,32.629746 37.0564681,33.9911651 C37.226048,33.957708 37.3814753,33.8663223 37.5387183,33.7127633 C37.7347871,33.5213121 38.0612406,33.5134349 38.2678715,33.6951362 C38.4744616,33.8768373 38.4830027,34.1794058 38.2868925,34.3708163 C37.8860076,34.7622091 37.4158471,34.9614965 36.9047556,34.9615384 L36.9047748,34.9615384 Z M37.9347023,32.8269231 C37.7681527,32.8269231 37.6055971,32.7418147 37.5123978,32.5875913 C36.8818256,31.543845 36.1676649,31.0178525 35.3291843,30.9796357 C35.056505,30.9672034 34.8453901,30.7336293 34.857651,30.4579637 C34.8699089,30.182296 35.1023348,29.9686684 35.3736679,29.9813019 C36.5490061,30.0348684 37.5524146,30.7365096 38.3560563,32.0666772 C38.4983274,32.3022099 38.4248193,32.609737 38.1918793,32.7535688 C38.1114513,32.8032577 38.0225223,32.8269231 37.9347004,32.8269231 L37.9347023,32.8269231 Z" id="形状" stroke="#BCC6CF" stroke-width="0.7776" fill="#BCC6CF"></path>
                <g id="编组-18备份-4" transform="translate(51.071429, 44.375680)">
                    <rect id="矩形" fill="#D73E47" x="0" y="2.73146303" width="35.3571429" height="35.3571429" rx="5"></rect>
                    <g id="M">
                        <use fill="#000000" xlink:href="#path-1"></use>
                        <use fill="#FFFFFF" xlink:href="#path-1"></use>
                    </g>
                </g>
                <path d="M51.9285715,23 L69.0714286,23 L46.2142857,0.5 L46.2142857,17.375 C46.2142857,20.46875 48.7857143,23 51.9285715,23 Z" id="路径" fill="#BCC6CF"></path>
                <polygon id="路径" fill="#EBEEF2" points="69.0714286 39.875 51.9285715 23 69.0714286 23"></polygon>
            </g>
        </g>
    </g>
</svg>