<?xml version="1.0" encoding="UTF-8"?>
<svg width="22px" height="22px" viewBox="0 0 22 22" version="1.1" xmlns="http://www.w3.org/2000/svg" xmlns:xlink="http://www.w3.org/1999/xlink">
    <title>收藏</title>
    <g id="飞梭-20230816✅" stroke="none" stroke-width="1" fill="none" fill-rule="evenodd">
        <g id="桌面" transform="translate(-22.000000, -237.000000)" fill-rule="nonzero" stroke="#000000" stroke-width="1.2">
            <g id="编组-12" transform="translate(0.000000, 75.000000)">
                <g id="收藏-2" transform="translate(22.000000, 162.000000)">
                    <g id="收藏" transform="translate(2.000000, 2.000000)">
                        <path d="M14.5121731,11.5432865 C14.7267809,12.5498203 14.9161407,13.4607971 15.0802525,14.2762169 C15.1559964,14.6202222 15.2254283,14.9642274 15.2885483,15.3082326 C15.3516682,15.6522378 15.4116321,15.9643907 15.4684401,16.2446913 C15.525248,16.5249919 15.5725879,16.7638844 15.6104599,16.9613689 C15.6483319,17.1588533 15.6735798,17.2830774 15.6862038,17.3340412 C15.7240758,17.5888599 15.6672678,17.7576772 15.51578,17.8404933 C15.3642922,17.9233094 15.1938684,17.9647174 15.0045086,17.9647174 C14.9413886,17.9647174 14.8498647,17.9424208 14.7299369,17.8978275 C14.610009,17.8532342 14.5184851,17.8181967 14.4553652,17.7927148 L9.51307485,14.8877818 C8.61677187,15.422901 7.8025248,15.9006861 7.07033365,16.3211369 C6.75473401,16.49951 6.44229036,16.6778831 6.13300272,16.8562561 C5.82371507,17.0346292 5.54283139,17.2002614 5.29035168,17.3531526 C5.03787198,17.5060438 4.82010823,17.6334531 4.63706043,17.7353806 C4.45401264,17.8373081 4.33092878,17.9010127 4.26780886,17.9264946 C4.141569,17.9901993 4.01217315,18.0124959 3.87962129,17.9933845 C3.74706944,17.9742731 3.62714157,17.9264946 3.51983771,17.850049 C3.41253384,17.7736034 3.33363393,17.6812316 3.28313798,17.5729337 C3.23264202,17.4646357 3.22001804,17.3531525 3.24526601,17.2384841 C3.25788999,17.1875204 3.28944996,17.0632963 3.33994591,16.8658118 C3.39044186,16.6683273 3.4472498,16.4326201 3.51036972,16.15869 C3.57348964,15.8847599 3.64607756,15.5821627 3.72813348,15.2508984 C3.81018939,14.9196341 3.89540129,14.5819993 3.98376918,14.2379941 C4.17312896,13.4480562 4.38773672,12.5561908 4.62759244,11.5623979 C3.88277729,10.9126103 3.21370606,10.3328977 2.62037874,9.82326037 C2.36789903,9.60666449 2.11857531,9.39325384 1.87240759,9.18302842 C1.62623986,8.97280299 1.40532011,8.78168898 1.20964835,8.60968637 C1.01397658,8.43768376 0.853020767,8.29753348 0.726780901,8.18923553 C0.600541036,8.08093759 0.531109112,8.02041815 0.51848513,8.00767722 C0.366997302,7.86752694 0.237601447,7.71145049 0.130297566,7.53944788 C0.0229936852,7.36744527 -0.0180342674,7.19225742 0.00721370816,7.01388434 C0.0324616838,6.83551125 0.101893607,6.69536097 0.215509479,6.5934335 C0.329125351,6.49150604 0.455365204,6.42780137 0.594229039,6.40231949 L6.44544633,5.86720025 L8.62308385,0.745344668 C8.69882776,0.54148972 8.80613164,0.366301872 8.94499547,0.219781123 C9.08385931,0.0732603744 9.27321909,0 9.51307483,0 C9.63931468,0 9.74977456,0.0286670995 9.84445446,0.0860012984 C9.93913436,0.143335497 10.0180343,0.2102254 10.0811542,0.286671007 C10.1442741,0.363116614 10.197926,0.439562221 10.24211,0.516007828 C10.286294,0.592453435 10.3210099,0.656158105 10.3462579,0.707121839 L12.4670875,5.82897742 L18.3183048,6.38320806 C18.5707845,6.44691274 18.7475203,6.52335834 18.8485122,6.61254488 C18.9495041,6.70173142 19,6.8418817 19,7.03299571 C19,7.21136879 18.9463481,7.36744523 18.8390442,7.50122505 C18.7317403,7.63500487 18.5960325,7.79745178 18.4319206,7.98856579 L14.5121731,11.5432865 Z" id="路径"></path>
                    </g>
                </g>
            </g>
        </g>
    </g>
</svg>