<?xml version="1.0" encoding="UTF-8"?>
<svg width="22px" height="22px" viewBox="0 0 22 22" version="1.1" xmlns="http://www.w3.org/2000/svg" xmlns:xlink="http://www.w3.org/1999/xlink">
    <title>复盘</title>
    <g id="飞梭-20230816✅" stroke="none" stroke-width="1" fill="none" fill-rule="evenodd">
        <g id="桌面" transform="translate(0.000000, -190.000000)">
            <g id="编组-12" transform="translate(0.000000, 75.000000)">
                <g id="复盘" transform="translate(0.000000, 115.000000)">
                    <path d="M10.5,0.964101615 C10.9316243,0.964101615 11.3632487,1.07574711 11.75,1.29903811 L11.75,1.29903811 L17.8432667,4.8169873 C18.2300181,5.04027829 18.5425181,5.35825318 18.7583302,5.73205081 C18.9741424,6.10584844 19.0932667,6.53546882 19.0932667,6.98205081 L19.0932667,6.98205081 L19.0932667,14.0179492 C19.0932667,14.9111132 18.6167694,15.7364307 17.8432667,16.1830127 L17.8432667,16.1830127 L11.75,19.7009619 C10.9764973,20.1475439 10.0235027,20.1475439 9.25,19.7009619 L9.25,19.7009619 L3.15673326,16.1830127 C2.38323057,15.7364307 1.90673326,14.9111132 1.90673326,14.0179492 L1.90673326,14.0179492 L1.90673326,6.98205081 C1.90673326,6.08888683 2.38323057,5.26356929 3.15673326,4.8169873 L3.15673326,4.8169873 L9.25,1.29903811 C9.63675135,1.07574711 10.0683757,0.964101615 10.5,0.964101615 Z" id="多边形" stroke="#3F8DF7"></path>
                    <path d="M10.5,13.5623098 C10.0678167,13.5623098 9.71746293,13.2197164 9.71746293,12.7971109 L9.71746293,8.84870531 C9.71746293,8.42609984 10.0678167,8.08351043 10.5,8.08351043 C10.9321833,8.08351043 11.2825371,8.42609984 11.2825371,8.84870531 L11.2825371,12.8583265 C11.2498293,13.2568568 10.9088707,13.5635871 10.5,13.5623098 Z M14.6004942,14.0979422 C14.1718072,14.0898003 13.8262835,13.751934 13.8179572,13.3327473 L13.8179572,7.30301165 C13.8262835,6.88382496 14.1718072,6.54595861 14.6004942,6.53781677 C15.0326775,6.53781677 15.3830313,6.88040619 15.3830313,7.30301165 L15.3830313,13.3327473 C15.3830313,13.7553528 15.0326775,14.0979422 14.6004942,14.0979422 L14.6004942,14.0979422 Z M6.39950577,13.0419732 C5.96732248,13.0419732 5.6169687,12.6993838 5.6169687,12.2767784 L5.6169687,9.64450798 C5.6169687,9.22190252 5.96732248,8.8793131 6.39950577,8.8793131 C6.83168905,8.8793131 7.18204283,9.22190252 7.18204283,9.64450798 L7.18204283,12.2767784 C7.18204283,12.6993838 6.83168905,13.0419732 6.39950577,13.0419732 Z" id="形状" fill="#3F8DF7" fill-rule="nonzero"></path>
                </g>
            </g>
        </g>
    </g>
</svg>