<?xml version="1.0" encoding="UTF-8"?>
<svg width="16px" height="16px" viewBox="0 0 16 16" version="1.1" xmlns="http://www.w3.org/2000/svg" xmlns:xlink="http://www.w3.org/1999/xlink">
    <title>文件夹</title>
    <g id="小溪知识库-20230804✅" stroke="none" stroke-width="1" fill="none" fill-rule="evenodd">
        <g id="菜单-不同状态" transform="translate(-53.000000, -188.000000)" fill="#333333" fill-rule="nonzero">
            <g id="树结构" transform="translate(10.000000, 146.000000)">
                <g id="文件夹-2" transform="translate(43.000000, 42.000000)">
                    <g id="文件夹" transform="translate(1.000000, 1.000000)">
                        <path d="M6.28425,0 C6.6241081,0 6.94069887,0.172624833 7.1248,0.4583 L8.11835,2 L13,2 C13.552275,2 14,2.447725 14,3 L14,12 C14,12.552275 13.552275,13 13,13 L1,13 C0.447725,13 0,12.552275 0,12 L0,1 C0,0.447725 0.447725,0 1,0 L6.28425,0 Z M13,2.75 L1,2.75 C0.861925,2.75 0.75,2.861925 0.75,3 L0.75,12 C0.75,12.138075 0.861925,12.25 1,12.25 L13,12.25 C13.138075,12.25 13.25,12.138075 13.25,12 L13.25,3 C13.25,2.861925 13.138075,2.75 13,2.75 Z M1,0.75 C0.861925001,0.75 0.750000001,0.861925 0.750000001,1 L0.750000001,2.0315 C0.831675537,2.01052044 0.91567307,1.99993675 1,2 L7.2261,2 L6.494375,0.864575 C6.44987357,0.795519919 6.3742857,0.752735393 6.292175,0.750125 L6.284225,0.75 L1,0.75 Z" id="形状"></path>
                    </g>
                </g>
            </g>
        </g>
    </g>
</svg>