<?xml version="1.0" encoding="UTF-8"?>
<svg width="17px" height="17px" viewBox="0 0 17 17" version="1.1" xmlns="http://www.w3.org/2000/svg" xmlns:xlink="http://www.w3.org/1999/xlink">
    <title>全屏</title>
    <g id="小溪知识库-20230804✅" stroke="none" stroke-width="1" fill="none" fill-rule="evenodd">
        <g id="菜单-不同状态" transform="translate(-771.000000, -146.000000)" fill="#828282" fill-rule="nonzero">
            <g id="left备份-2" transform="translate(600.000000, 0.000000)">
                <g id="树结构" transform="translate(10.000000, 137.000000)">
                    <g id="全屏-2" transform="translate(161.000000, 9.000000)">
                        <g id="全屏" transform="translate(1.000000, 2.000000)">
                            <path d="M1,12.293 L5.096,8.197 C5.29218944,8.0075139 5.60404239,8.01022381 5.79690929,8.20309071 C5.98977619,8.39595761 5.9924861,8.70781056 5.803,8.904 L1.707,13 L4.5,13 C4.77614237,13 5,13.2238576 5,13.5 C5,13.7761424 4.77614237,14 4.5,14 L0.5,14 C0.223857625,14 4.4408921e-16,13.7761424 4.4408921e-16,13.5 L4.4408921e-16,9.5 C4.4408921e-16,9.22385763 0.223857625,9 0.5,9 C0.776142375,9 1,9.22385763 1,9.5 L1,12.293 Z M13,1.707 L8.904,5.803 C8.70781056,5.9924861 8.39595761,5.98977619 8.20309071,5.79690929 C8.01022381,5.60404239 8.0075139,5.29218944 8.197,5.096 L12.293,1 L9.5,1 C9.22385763,1 9,0.776142375 9,0.5 C9,0.223857625 9.22385763,0 9.5,0 L13.5,0 C13.7761424,0 14,0.223857625 14,0.5 L14,4.5 C14,4.77614237 13.7761424,5 13.5,5 C13.2238576,5 13,4.77614237 13,4.5 L13,1.707 Z M1,4.5 L1,1.5 C1,1.22385763 1.22385763,1 1.5,1 L4.5,1 C4.77614237,1 5,0.776142375 5,0.5 C5,0.223857625 4.77614237,0 4.5,0 L1.5,0 C0.671572875,0 0,0.671572875 0,1.5 L0,4.5 C0,4.77614237 0.223857625,5 0.5,5 C0.776142375,5 1,4.77614237 1,4.5 Z M13,9.5 L13,12.5 C13,12.7761424 12.7761424,13 12.5,13 L9.5,13 C9.22385763,13 9,13.2238576 9,13.5 C9,13.7761424 9.22385763,14 9.5,14 L12.5,14 C13.3284271,14 14,13.3284271 14,12.5 L14,9.5 C14,9.22385763 13.7761424,9 13.5,9 C13.2238576,9 13,9.22385763 13,9.5 Z" id="形状"></path>
                        </g>
                    </g>
                </g>
            </g>
        </g>
    </g>
</svg>