<?xml version="1.0" encoding="UTF-8"?>
<svg width="22px" height="22px" viewBox="0 0 22 22" version="1.1" xmlns="http://www.w3.org/2000/svg" xmlns:xlink="http://www.w3.org/1999/xlink">
    <title>桌面</title>
    <g id="飞梭-20230816✅" stroke="none" stroke-width="1" fill="none" fill-rule="evenodd">
        <g id="桌面" transform="translate(0.000000, -88.000000)" fill="#3F8DF7" fill-rule="nonzero">
            <g id="编组-12" transform="translate(0.000000, 75.000000)">
                <g id="桌面-2" transform="translate(0.000000, 13.000000)">
                    <g id="桌面" transform="translate(1.000000, 3.000000)">
                        <path d="M12.1355247,14.7567348 C12.9340961,14.7567348 13.7326675,14.7177474 14.569266,14.7177474 C15.0255925,14.67876 15.3678374,14.3278733 15.4058646,13.8600244 C15.481919,11.3258427 15.4058646,8.79166103 15.4058646,6.25747936 C15.4058646,6.10152971 15.4438918,5.94558007 15.5579734,5.86760525 C15.5960007,5.82861784 15.6720551,5.75064302 15.7481095,5.75064302 C16.0142999,5.63368079 16.3565448,5.71165561 16.5086537,5.98456748 C16.5466809,6.0625423 16.5847081,6.14051712 16.5847081,6.25747936 C16.6987897,8.79166103 16.5847081,11.3258427 16.5847081,13.8600244 C16.5847081,14.7177474 16.0903544,15.4974956 15.291783,15.8093949 C15.0636197,15.8873697 14.8354565,15.9653445 14.6072932,15.9653445 C11.2608989,16.0433193 7.8764774,15.9653445 4.53008308,15.9653445 C4.33994704,15.9653445 4.11178379,15.9263571 3.92164775,15.8873697 C3.31321242,15.6924327 2.85688592,15.2635711 2.62872268,14.67876 C2.55266826,14.4448355 2.47661384,14.2109111 2.47661384,13.9769866 C2.40055943,11.4038175 2.47661384,8.86963585 2.47661384,6.29646677 C2.47661384,5.98456748 2.70477709,5.71165561 3.00899476,5.71165561 L3.12307638,5.71165561 C3.38926684,5.75064302 3.61743009,5.98456748 3.6554573,6.25747936 C3.76953892,8.79166103 3.57940288,11.3648301 3.6554573,13.9379992 C3.6934845,14.4058481 4.03572938,14.7567348 4.49205587,14.7957222 C5.29062725,14.8347096 6.08919862,14.8347096 6.9257972,14.8347096 C6.88776999,13.9379992 6.88776999,13.0023013 6.9257972,12.1055909 C7.00185161,10.7410315 8.06661344,9.64938405 9.39756573,9.57140923 L9.58770177,9.57140923 C10.9566813,9.61039664 12.0974975,10.7410315 12.1355247,12.1835657 L12.1355247,14.7567348 L12.1355247,14.7567348 Z M10.9566813,14.7567348 C10.9566813,13.8600244 10.9947085,12.9633139 10.9566813,12.0276161 C10.9186541,11.6767294 10.7665452,11.3258427 10.5003548,11.0919182 C10.1200827,10.7020441 9.54967456,10.5850819 9.01729364,10.780019 C8.67504877,10.8969812 8.37083111,11.1698931 8.21872227,11.4817923 C8.14266786,11.6767294 8.06661344,11.8716664 8.06661344,12.0666035 C8.02858623,12.9633139 8.06661344,13.8600244 8.06661344,14.7567348 L10.9566813,14.7567348 Z M9.58770177,0 C10.2341643,0.0389874103 10.8425996,0.194937052 11.3749805,0.545823744 C11.5651166,0.662785975 11.7552526,0.818735617 11.9453887,0.974685258 C14.2650484,3.27494247 16.5466809,5.6531745 18.8283133,7.99241911 C18.9043678,8.07039394 18.942395,8.18735617 18.9804222,8.26533099 C19.0564766,8.53824286 18.9043678,8.85014214 18.6381773,8.96710437 C18.5621229,9.00609178 18.5240957,9.00609178 18.4480413,9.00609178 C18.2959324,9.00609178 18.1438236,8.96710437 18.029742,8.88912955 C15.5960007,6.66684716 13.466477,4.05469067 11.0707629,1.79342087 C10.8806268,1.63747123 10.6524636,1.48152159 10.4243003,1.36455936 C9.81586502,1.09164749 9.13137527,1.09164749 8.56096715,1.36455936 C8.3328039,1.48152159 8.10464065,1.59848382 7.91450461,1.79342087 C5.5568177,4.09367808 3.31321242,6.51089752 1.03157993,8.88912955 C0.8794711,9.04507919 0.651307851,9.0840666 0.423144602,9.04507919 C0.156954145,8.96710437 -0.0331818954,8.6941925 0.0048453127,8.38229322 C0.0048453127,8.26533099 0.080899729,8.18735617 0.118926937,8.07039394 C2.32450501,5.57519968 4.72021912,3.31392988 7.07790603,0.974685258 C7.26804207,0.818735617 7.45817811,0.662785975 7.64831415,0.545823744 C8.18069507,0.194937052 8.7891304,0.0389874103 9.43559293,0 L9.58770177,0 Z" id="形状"></path>
                    </g>
                </g>
            </g>
        </g>
    </g>
</svg>