<?xml version="1.0" encoding="UTF-8"?>
<svg width="12px" height="12px" viewBox="0 0 12 12" version="1.1" xmlns="http://www.w3.org/2000/svg" xmlns:xlink="http://www.w3.org/1999/xlink">
    <title>#</title>
    <g id="飞梭-20230816✅" stroke="none" stroke-width="1" fill="none" fill-rule="evenodd">
        <g id="桌面" transform="translate(-238.000000, -91.000000)" fill="#000000" fill-rule="nonzero">
            <g id="编组-4" transform="translate(217.000000, 61.000000)">
                <g id="编组-6" transform="translate(13.000000, 22.000000)">
                    <g id="#-2" transform="translate(8.000000, 8.000000)">
                        <path d="M3.88,12 L4.28,9.504 L6.312,9.504 L5.912,12 L7.4,12 L7.8,9.504 L9.384,9.504 L9.592,8.192 L8.008,8.192 L8.6,4.384 L9.992,4.384 L10.2,3.072 L8.808,3.072 L9.208,0.576 L7.736,0.576 L7.336,3.072 L5.288,3.072 L5.688,0.576 L4.216,0.576 L3.816,3.072 L2.216,3.072 L2.008,4.384 L3.608,4.384 L3,8.192 L1.608,8.192 L1.4,9.504 L2.792,9.504 L2.392,12 L3.88,12 Z M6.52,8.192 L4.488,8.192 L5.08,4.384 L7.128,4.384 L6.52,8.192 Z" id="#"></path>
                    </g>
                </g>
            </g>
        </g>
    </g>
</svg>