<?xml version="1.0" encoding="UTF-8"?>
<svg width="17px" height="17px" viewBox="0 0 17 17" version="1.1" xmlns="http://www.w3.org/2000/svg" xmlns:xlink="http://www.w3.org/1999/xlink">
    <title>菜单入口</title>
    <g id="小溪知识库-20230804✅" stroke="none" stroke-width="1" fill="none" fill-rule="evenodd">
        <g id="菜单-不同状态" transform="translate(-809.000000, -147.000000)" fill="#828282">
            <g id="left备份-2" transform="translate(600.000000, 0.000000)">
                <g id="树结构" transform="translate(10.000000, 137.000000)">
                    <g id="菜单入口-2" transform="translate(199.000000, 10.000000)">
                        <g id="菜单入口" transform="translate(3.000000, 7.000000)">
                            <path d="M0,1.49996338 C0,2.32840172 0.671598283,3 1.50003662,3 C2.32846031,3 3,2.32840172 3,1.49996338 C3,0.671598283 2.32846031,0 1.50003662,0 C0.671598283,0 0,0.671598283 0,1.49996338 Z" id="Fill-5"></path>
                            <path d="M4,1.49996338 C4,2.32840172 4.67159828,3 5.50003662,3 C6.32846031,3 7,2.32840172 7,1.49996338 C7,0.671598283 6.32846031,0 5.50003662,0 C4.67159828,0 4,0.671598283 4,1.49996338 Z" id="Fill-5"></path>
                            <path d="M8,1.49996338 C8,2.32840172 8.67159828,3 9.50003662,3 C10.3284603,3 11,2.32840172 11,1.49996338 C11,0.671598283 10.3284603,0 9.50003662,0 C8.67159828,0 8,0.671598283 8,1.49996338 Z" id="Fill-5"></path>
                        </g>
                    </g>
                </g>
            </g>
        </g>
    </g>
</svg>