<?xml version="1.0" encoding="UTF-8"?>
<svg width="20px" height="20px" viewBox="0 0 20 20" version="1.1" xmlns="http://www.w3.org/2000/svg" xmlns:xlink="http://www.w3.org/1999/xlink">
    <title>通知</title>
    <g id="小溪知识库-20230804✅" stroke="none" stroke-width="1" fill="none" fill-rule="evenodd">
        <g id="菜单-不同状态" transform="translate(-201.000000, -67.000000)" fill="#333333" fill-rule="nonzero">
            <g id="编组-11" transform="translate(19.000000, 67.000000)">
                <g id="通知-2" transform="translate(182.000000, 0.000000)">
                    <g id="通知" transform="translate(3.000000, 0.000000)">
                        <path d="M14.8170762,15.5178904 L13.2552954,12.7659224 L13.2552954,7.21847718 C13.2552954,5.09331616 11.6609492,2.79275799 9.33659605,1.94976384 C9.22261726,0.82123945 8.4722569,0 7.4871545,0 C6.50476588,0 5.75033486,0.82123945 5.63771296,1.94840417 C3.31607356,2.7913983 1.7203705,5.09195649 1.7203705,7.21711751 L1.7203705,12.7645628 L0.0826038584,15.6511378 C-0.027577599,15.8412206 -0.0275316934,16.0759211 0.0827241129,16.2659605 C0.192979919,16.4559999 0.396498258,16.5721674 0.61586177,16.5702734 L4.51149396,16.5702734 C4.80429966,17.9833651 6.04551774,18.9973236 7.48579761,19 C8.9512392,19 10.1751543,17.955775 10.4601013,16.5702734 L14.3842282,16.5702734 C14.6335714,16.5712667 14.8586961,16.4208954 14.9537091,16.1898903 C15.0487222,15.9588852 14.994709,15.6932332 14.8170762,15.5178904 M7.4871545,1.23185917 C7.70832764,1.23185917 7.88743716,1.400458 8.00141595,1.6506369 C7.83180466,1.63432089 7.66626403,1.59353085 7.4871545,1.59353085 C7.30940187,1.59353085 7.14386124,1.63296122 6.97289306,1.6506369 C7.08822874,1.400458 7.26598137,1.23185917 7.4871545,1.23185917 M7.4871545,17.7695005 C6.72955131,17.7658615 6.05578217,17.286022 5.80325357,16.5702734 L9.17105544,16.5702734 C8.91954239,17.2867891 8.24514681,17.7670748 7.4871545,17.7695005 M1.67152245,15.3411335 L2.86829974,13.2309289 C2.92211758,13.1384584 2.95066628,13.0334093 2.95107006,12.9263632 L2.95107006,7.21711751 C2.95107006,5.14362388 4.89006638,2.82403034 7.4885114,2.82403034 C10.0855995,2.82403034 12.0286665,5.14362386 12.0286665,7.21711751 L12.0286665,12.9263632 C12.0286665,13.033777 12.0571612,13.1398311 12.1087231,13.2309289 L13.3068572,15.3411335 L1.67152245,15.3411335 Z" id="形状"></path>
                    </g>
                </g>
            </g>
        </g>
    </g>
</svg>