<?xml version="1.0" encoding="UTF-8"?>
<svg width="22px" height="22px" viewBox="0 0 22 22" version="1.1" xmlns="http://www.w3.org/2000/svg" xmlns:xlink="http://www.w3.org/1999/xlink">
    <title>常用</title>
    <g id="飞梭-20230816✅" stroke="none" stroke-width="1" fill="none" fill-rule="evenodd" opacity="0.919999957">
        <g id="桌面" transform="translate(-21.000000, -343.000000)" fill-rule="nonzero" stroke="#000000" stroke-width="1.2">
            <g id="编组-11" transform="translate(21.000000, 343.000000)">
                <g id="常用" transform="translate(1.000000, 1.439799)">
                    <g id="编组" transform="translate(1.786494, 0.000000)">
                        <path d="M15.5339609,9.15871227 C15.0907791,8.22856686 14.4566882,7.40460242 13.64987,6.71230241 L12.9885064,6.14529596 C12.8907791,6.06459841 12.7362336,6.10069995 12.6930518,6.21537541 L12.3975973,7.00748555 C12.2135064,7.50441255 11.87487,8.01195765 11.3953245,8.51100827 C11.3635064,8.54286257 11.3271427,8.55135705 11.3021427,8.55348067 C11.2771427,8.55560428 11.2385064,8.55135705 11.2044155,8.52162637 C11.1725973,8.49614293 11.1566882,8.45791778 11.1589609,8.41969263 C11.2430518,7.14127358 10.8339609,5.69933583 9.93850637,4.12998089 C9.19759728,2.82607842 8.16805182,1.80886459 6.88168819,1.09957562 L5.94305182,0.583536045 C5.82032455,0.515580215 5.66350637,0.604772241 5.67032455,0.73856028 L5.72032455,1.75789772 C5.75441546,2.45444497 5.66805182,3.07029468 5.46350637,3.58208702 C5.21350637,4.20855482 4.85441546,4.79042661 4.39532455,5.31283705 C4.07259728,5.67809963 3.71123364,6.00726068 3.3157791,6.29182572 C2.35896091,6.97775487 1.57032455,7.87179875 1.03623364,8.87202362 C0.497597277,9.88286658 0.213506368,11.0147559 0.213506368,12.1487688 C0.213506368,13.1511173 0.424870005,14.1216114 0.843051823,15.0368915 C1.24759728,15.9181937 1.82487,16.7124274 2.55896091,17.3919857 C3.29532455,18.071544 4.14987,18.6066962 5.10214273,18.9783296 C6.08850637,19.3648284 7.13396091,19.5602014 8.21350637,19.5602014 C9.29305182,19.5602014 10.3385064,19.3648284 11.32487,18.9804532 C12.2771427,18.6088198 13.1339609,18.0757913 13.8680518,17.3941094 C14.6044155,16.7145511 15.1816882,15.9203173 15.5839609,15.0390151 C16.0021427,14.1237351 16.2135064,13.1532409 16.2135064,12.1508924 C16.2135064,11.114566 15.9862336,10.1079703 15.5339609,9.15871227 Z" id="路径"></path>
                    </g>
                </g>
            </g>
        </g>
    </g>
</svg>