<?xml version="1.0" encoding="UTF-8"?>
<svg width="22px" height="22px" viewBox="0 0 22 22" version="1.1" xmlns="http://www.w3.org/2000/svg" xmlns:xlink="http://www.w3.org/1999/xlink">
    <title>任务</title>
    <g id="飞梭-20230816✅" stroke="none" stroke-width="1" fill="none" fill-rule="evenodd">
        <g id="桌面" transform="translate(-2.000000, -290.000000)" stroke="#3F8DF7">
            <g id="编组-12" transform="translate(0.000000, 75.000000)">
                <g id="任务-2" transform="translate(2.000000, 215.000000)">
                    <g id="任务" transform="translate(2.000000, 2.000000)">
                        <rect id="矩形" x="0.5" y="0.5" width="17" height="17" rx="3"></rect>
                        <path d="M7.63137612,12.8 C7.51494339,12.8 7.39851066,12.7552196 7.30993607,12.6649367 L4.23339762,9.55486883 C4.05553413,9.37502515 4.05553413,9.08467511 4.23339762,8.90483143 C4.41054681,8.72571001 4.69841423,8.72571001 4.87556341,8.90483143 L7.63137612,11.6906028 L13.3244366,5.93488276 C13.5015858,5.75503908 13.7894532,5.75503908 13.9666024,5.93488276 C14.1444659,6.11472644 14.1444659,6.40507648 13.9666024,6.58492016 L7.95281617,12.6656589 C7.86424158,12.7552196 7.74780885,12.8 7.63137612,12.8 Z" id="路径" stroke-width="0.4" fill="#3F8DF7" fill-rule="nonzero"></path>
                    </g>
                </g>
            </g>
        </g>
    </g>
</svg>