<?xml version="1.0" encoding="UTF-8"?>
<svg width="22px" height="22px" viewBox="0 0 22 22" version="1.1" xmlns="http://www.w3.org/2000/svg" xmlns:xlink="http://www.w3.org/1999/xlink">
    <title>a-luojitu1</title>
    <g id="飞梭-20230816✅" stroke="none" stroke-width="1" fill="none" fill-rule="evenodd">
        <g id="大纲" transform="translate(-22.000000, -81.000000)" fill-rule="nonzero">
            <g id="编组-6" transform="translate(0.000000, 81.000000)">
                <g id="a-luojitu1-2" transform="translate(22.000000, 0.000000)">
                    <g id="a-luojitu1" transform="translate(11.000000, 11.000000) rotate(-270.000000) translate(-11.000000, -11.000000) translate(2.000000, 2.000000)">
                        <path d="M14.2179594,1.38941737 L7.86806772,1.38941737 L7.86806772,2.48097504 L7.88654819,2.48097504 L7.88654819,8.44530321 L4.39928229,8.44530321 C4.49521518,8.80326579 4.49521518,9.17889831 4.39928229,9.53686089 L7.88654819,9.53686089 L7.88654819,15.5743163 L7.86806772,15.5743163 L7.86806772,16.665874 L14.2345919,16.665874 C14.1255374,16.3087765 14.1293982,15.9283915 14.2456801,15.5734245 L9.01293324,15.5734245 L9.01293324,9.53686089 L14.239212,9.53686089 C14.1267375,9.18110464 14.1267375,8.80105946 14.239212,8.44530321 L9.01293324,8.44530321 L9.01293324,2.48097504 L14.2641606,2.48097504 C14.1363073,2.1297124 14.1202176,1.74957407 14.2179594,1.38941737 L14.2179594,1.38941737 Z" id="路径" fill="#3D3D3D"></path>
                        <path d="M4.39928229,8.44530321 C4.14495129,7.49211697 3.2550721,6.82543281 2.23521849,6.82401903 C0.998042236,6.82697079 -0.0025497841,7.79705524 -3.21713623e-15,8.99108204 C-0.00122172059,9.56464067 0.233681883,10.115178 0.653039313,10.5215814 C1.07239674,10.9279848 1.64185623,11.1569637 2.23614253,11.1581451 C3.25530764,11.1559196 4.14420015,10.4894055 4.39835828,9.53686089 C4.49429117,9.17889831 4.49429117,8.80326579 4.39835828,8.44530321 L4.39928229,8.44530321 Z" id="路径" fill="#FE3F66"></path>
                        <path d="M14.2345919,16.665874 C14.4745736,17.4555051 15.2244602,17.9984855 16.0770954,18 C17.1397228,18 17.9990685,17.1661712 17.9990685,16.1370392 C18.0000461,15.6441336 17.7981045,15.1710401 17.4376651,14.8218342 C17.0772257,14.4726284 16.5878139,14.2759154 16.0770954,14.2749703 C15.2186772,14.2749703 14.4914705,14.8207491 14.2456801,15.5734245 C14.1295301,15.928107 14.1256694,16.30817 14.2345919,16.6649822 L14.2345919,16.665874 Z M14.239212,9.53686089 C14.4851722,10.3185186 15.2315898,10.8531954 16.0780194,10.8540428 C17.1387987,10.8540428 17.9999945,10.020214 17.9999945,8.99108204 C18.0012156,8.49802211 17.7993824,8.02469936 17.4389164,7.67530049 C17.0784504,7.32590163 16.5888984,7.12906624 16.0780194,7.12812129 C15.2122091,7.12812129 14.4794582,7.68281809 14.239212,8.44530321 C14.1267375,8.80105946 14.1267375,9.18110464 14.239212,9.53686089 Z M14.2179594,1.38941737 C14.1202176,1.74957407 14.1363073,2.1297124 14.2641606,2.48097504 C14.5333968,3.22516593 15.2603585,3.72401461 16.0770954,3.72502974 C17.1387987,3.72502974 17.9990685,2.89120096 17.9990685,1.86206897 C18.0000461,1.36916337 17.7981045,0.896069811 17.4376651,0.546863942 C17.0772257,0.197658074 16.5878139,0.000945163445 16.0770954,0 C15.1844883,0 14.434181,0.589476806 14.2179594,1.38941737 L14.2179594,1.38941737 Z" id="形状" fill="#3D3D3D"></path>
                    </g>
                </g>
            </g>
        </g>
    </g>
</svg>