<?xml version="1.0" encoding="UTF-8"?>
<svg width="12px" height="7px" viewBox="0 0 12 7" version="1.1" xmlns="http://www.w3.org/2000/svg" xmlns:xlink="http://www.w3.org/1999/xlink">
    <title>下拉 2</title>
    <g id="小溪知识库-20230804✅" stroke="none" stroke-width="1" fill="none" fill-rule="evenodd">
        <g id="菜单-不同状态" transform="translate(-115.000000, -30.000000)" fill="#818181">
            <g id="编组-9" transform="translate(20.000000, 20.000000)">
                <g id="下拉-3" transform="translate(95.500000, 10.500000)">
                    <g id="下拉-2" transform="translate(-0.000000, -0.000000)">
                        <path d="M8.34036291,2.50911112 L3.34031929,-2.36678694 C3.13730971,-2.55684235 2.82658434,-2.54177224 2.6411921,-2.33285871 C2.45579985,-2.12394518 2.4638468,-1.79797209 2.65929772,-1.59939879 L7.27433799,2.90120023 L2.65179766,7.59992208 C2.45367093,7.80142341 2.4488662,8.13312969 2.64105538,8.34085563 C2.83324455,8.54856109 3.1496731,8.55361859 3.34781936,8.35211726 L8.34786298,3.26970133 C8.44637946,3.16973898 8.50137994,3.03171232 8.49997368,2.88797293 C8.49854789,2.74423354 8.44083254,2.60743541 8.34036291,2.50964348" id="下拉" transform="translate(5.500000, 3.000000) rotate(-270.000000) translate(-5.500000, -3.000000) "></path>
                    </g>
                </g>
            </g>
        </g>
    </g>
</svg>