<?xml version="1.0" encoding="UTF-8"?>
<svg width="18px" height="18px" viewBox="0 0 18 18" version="1.1" xmlns="http://www.w3.org/2000/svg" xmlns:xlink="http://www.w3.org/1999/xlink">
    <title>删除</title>
    <g id="小溪知识库-20230804✅" stroke="none" stroke-width="1" fill="none" fill-rule="evenodd">
        <g id="菜单-不同状态" transform="translate(-20.000000, -1046.000000)" fill="#999999" fill-rule="nonzero">
            <g id="回收站" transform="translate(20.000000, 1039.000000)">
                <g id="删除-2" transform="translate(0.000000, 7.000000)">
                    <g id="删除" transform="translate(0.000000, 0.010833)">
                        <path d="M9.73333334,12.6933333 L9.73333334,5.97333334 C9.73333334,5.22666667 10.9066667,5.22666667 10.9066667,5.97333334 L10.9066667,12.6933333 C11.0133333,13.44 9.73333334,13.44 9.73333334,12.6933333 Z M6.10666668,12.6933333 L6.10666668,5.97333334 C6.10666668,5.22666667 7.28000002,5.22666667 7.28,5.97333334 L7.28,12.6933333 C7.38666667,13.44 6.10666668,13.44 6.10666668,12.6933333 Z M16.4533333,2.98666667 L13.36,2.98666667 L13.36,1.81333333 C13.36,0.853333331 12.5066667,-1.13686838e-13 11.5466667,-1.13686838e-13 L5.46666667,-1.13686838e-13 C4.93333334,-1.13686838e-13 4.50666667,0.213333337 4.18666668,0.533333325 C3.86666667,0.853333331 3.65333335,1.38666666 3.65333333,1.81333333 L3.65333333,2.98666667 L0.559999997,2.98666667 C-0.186666666,2.98666667 -0.186666666,4.15999999 0.559999997,4.15999999 L16.4533333,4.15999999 C17.3066667,4.15999999 17.3066667,2.98666665 16.4533333,2.98666667 Z M4.93333334,1.70666666 C4.93333334,1.38666666 5.25333335,1.06666667 5.57333333,1.06666667 L11.6533333,1.06666667 C11.9733333,1.06666667 12.2933333,1.28000001 12.2933333,1.70666666 L12.2933333,2.88 L4.93333334,2.88 L4.93333334,1.70666666 Z M12.8266667,16.96 L4.29333333,16.96 C3.76,16.96 3.33333333,16.7466667 3.01333334,16.4266667 C2.69333333,16.1066667 2.48,15.5733333 2.48,15.1466667 L2.48,5.97333334 C2.48,5.65333333 2.8,5.33333332 3.12000001,5.33333332 C3.44000002,5.33333332 3.76,5.54666666 3.76,5.97333334 L3.76,15.1466667 C3.76,15.4666667 4.08000001,15.7866667 4.4,15.7866667 L12.9333333,15.7866667 C13.2533333,15.7866667 13.5733333,15.4666666 13.5733333,15.1466667 L13.5733333,6.07999999 C13.5733333,5.33333332 14.7466667,5.33333332 14.7466667,6.07999999 L14.7466667,15.2533333 C14.64,16.1066667 13.8933333,16.96 12.8266667,16.96 L12.8266667,16.96 Z" id="形状"></path>
                    </g>
                </g>
            </g>
        </g>
    </g>
</svg>