<?xml version="1.0" encoding="UTF-8"?>
<svg width="20px" height="20px" viewBox="0 0 20 20" version="1.1" xmlns="http://www.w3.org/2000/svg" xmlns:xlink="http://www.w3.org/1999/xlink">
    <title>搜索</title>
    <g id="小溪知识库-20230804✅" stroke="none" stroke-width="1" fill="none" fill-rule="evenodd">
        <g id="菜单-不同状态" transform="translate(-142.000000, -67.000000)" fill="#333333" fill-rule="nonzero">
            <g id="编组-11" transform="translate(19.000000, 67.000000)">
                <g id="搜索-3" transform="translate(123.000000, 0.000000)">
                    <g id="搜索" transform="translate(1.000000, 1.000000)">
                        <path d="M12.7508459,13.7720909 L16.7696862,17.7899497 C16.9097595,17.9299957 17.0943728,18 17.2790047,18 C17.4636367,18 17.64825,17.929977 17.7883233,17.7899497 C18.0705589,17.5077693 18.0705589,17.0515851 17.7883233,16.7715305 L13.7716093,12.7515458 C16.3096596,9.69626943 16.1483794,5.14093514 13.2856238,2.27872075 C11.8149845,0.810494857 9.86050463,0 7.78079811,0 C5.70111023,0 3.74663038,0.810494857 2.27597238,2.27872075 C-0.75865746,5.31279444 -0.75865746,10.2500383 2.27597238,13.2840933 C3.74875666,14.7565709 5.70323651,15.5649213 7.78079811,15.5649213 C9.61857505,15.5649399 11.3566034,14.9326633 12.7508459,13.7720909 Z M7.78079811,1.44277147 C9.47426782,1.44277147 11.0679889,2.10262838 12.2648791,3.29928451 C14.737164,5.77106725 14.737164,9.7959799 12.2648791,12.2677813 C11.0658626,13.4644188 9.47426782,14.1242943 7.78079811,14.1242943 C6.08732839,14.1242943 4.49573358,13.4644374 3.29673575,12.2677813 C0.824450889,9.79385404 0.824450889,5.7710859 3.29673575,3.29928451 C4.49573358,2.10262838 6.08734704,1.44277147 7.78079811,1.44277147 Z"></path>
                    </g>
                </g>
            </g>
        </g>
    </g>
</svg>